<svg width="16" height="22" viewBox="0 0 16 22" xmlns="http://www.w3.org/2000/svg"><title>61420FC0-950F-47F9-94E6-D64C85E97BB2</title><g fill="none" fill-rule="evenodd"><path d="M12.48 6.609a4.442 4.442 0 1 1-8.883 0 4.442 4.442 0 0 1 8.883 0" fill="#FFF"/><path d="M12.48 5.609a4.442 4.442 0 1 1-8.883 0 4.442 4.442 0 0 1 8.883 0z" stroke="#B2B3BC"/><path d="M14.356 13.826a4.644 4.644 0 0 0-.624-1.564 1.187 1.187 0 0 0-1.678-.348 7.186 7.186 0 0 1-4.016 1.22 7.186 7.186 0 0 1-4.016-1.22 1.187 1.187 0 0 0-1.678.348 4.644 4.644 0 0 0-.623 1.564l-.48 2.373c-.473 2.41 1.372 4.583 3.83 4.583h5.935c2.457 0 4.303-2.173 3.83-4.583l-.48-2.373z" fill="#FFF"/><path d="M14.356 13.826a4.644 4.644 0 0 0-.624-1.564 1.187 1.187 0 0 0-1.678-.348 7.186 7.186 0 0 1-4.016 1.22 7.186 7.186 0 0 1-4.016-1.22 1.187 1.187 0 0 0-1.678.348 4.644 4.644 0 0 0-.623 1.564l-.48 2.373c-.473 2.41 1.372 4.583 3.83 4.583h5.935c2.457 0 4.303-2.173 3.83-4.583l-.48-2.373z" stroke="#B2B3BC"/></g></svg>