<?xml version="1.0" encoding="UTF-8"?>
<svg width="18px" height="18px" viewBox="0 0 18 18" version="1.1" xmlns="http://www.w3.org/2000/svg" xmlns:xlink="http://www.w3.org/1999/xlink">
    <!-- Generator: sketchtool 41.2 (35397) - http://www.bohemiancoding.com/sketch -->
    <title>3DA28EC7-8BAF-4D23-BE3B-D2F34A8CC2D5</title>
    <desc>Created with sketchtool.</desc>
    <defs></defs>
    <g id="Symbols" stroke="none" stroke-width="1" fill="none" fill-rule="evenodd">
        <g id="services-before-open-v2" transform="translate(-43.000000, -219.000000)" fill="#868792">
            <g id="search">
                <g transform="translate(30.000000, 209.000000)">
                    <g id="icon-search" transform="translate(10.000000, 7.000000)">
                        <path d="M14,16.9291111 C17.3922941,16.4438815 20,13.5264719 20,10 C20,6.13400675 16.8659932,3 13,3 C9.13400675,3 6,6.13400675 6,10 C6,13.5264719 8.60770586,16.4438815 12,16.9291111 L12,23 L14,23 L14,16.9291111 Z M13,15 C15.7614237,15 18,12.7614237 18,10 C18,7.23857625 15.7614237,5 13,5 C10.2385763,5 8,7.23857625 8,10 C8,12.7614237 10.2385763,15 13,15 Z" id="Combined-Shape" transform="translate(13.000000, 13.000000) scale(-1, 1) rotate(45.000000) translate(-13.000000, -13.000000) "></path>
                    </g>
                </g>
            </g>
        </g>
    </g>
</svg>