<?xml version="1.0" encoding="UTF-8"?>
<svg width="12px" height="9px" viewBox="0 0 12 9" version="1.1" xmlns="http://www.w3.org/2000/svg" xmlns:xlink="http://www.w3.org/1999/xlink">
    <!-- Generator: sketchtool 41.2 (35397) - http://www.bohemiancoding.com/sketch -->
    <title>5561D434-4A1D-415C-A0DC-1DDEBEF1F3EE</title>
    <desc>Created with sketchtool.</desc>
    <defs>
        <path d="M5,8 L5,4.99077797 C5,4.45097518 4.55228475,4 4,4 C3.44386482,4 3,4.44358641 3,4.99077797 L3,9.00922203 C3,9.27837369 3.11130784,9.52544165 3.29138676,9.70553365 C3.47442669,9.89025631 3.72204444,10 3.99539757,10 L12.0046024,10 C12.5443356,10 13,9.55228475 13,9 C13,8.44386482 12.5543453,8 12.0046024,8 L5,8 Z" id="path-1"></path>
        <mask id="mask-2" maskContentUnits="userSpaceOnUse" maskUnits="objectBoundingBox" x="0" y="0" width="10" height="6" fill="white">
            <use xlink:href="#path-1"></use>
        </mask>
    </defs>
    <g id="ver2" stroke="none" stroke-width="1" fill="none" fill-rule="evenodd">
        <g id="order-form-select-car" transform="translate(-483.000000, -559.000000)" stroke="#555555" stroke-width="2" fill="#FFFFFF">
            <g id="car-select-box" transform="translate(165.000000, 450.000000)">
                <g id="car-popular" transform="translate(20.000000, 27.000000)">
                    <g id="car" transform="translate(0.000000, 66.000000)">
                        <g id="checklist" transform="translate(296.000000, 12.000000)">
                            <use id="icon-checklist" mask="url(#mask-2)" transform="translate(8.000000, 7.000000) rotate(-45.000000) translate(-8.000000, -7.000000) " xlink:href="#path-1"></use>
                        </g>
                    </g>
                </g>
            </g>
        </g>
    </g>
</svg>