<svg width="22" height="22" viewBox="0 0 22 22" xmlns="http://www.w3.org/2000/svg"><title>0E664E06-7746-4745-936E-3D94C5F06FC9</title><g stroke="#B2B3BC" fill="none" fill-rule="evenodd"><path d="M9.245 7.077l-.893-.896c-.268-.268-.7-.226-.967.043L6.241 7.372s-.59 1.374.076 2.449c0 0 1.187 1.688 2.672 3.176 1.485 1.49 3.17 2.678 3.17 2.678.948.632 2.509.147 2.509.147l1.144-1.147c.268-.269.241-.77-.026-1.038l-.894-.896c-.867-.87-1.584-.12-3.1.015l-2.562-2.57c.134-1.52.882-2.24.015-3.109z"/><path d="M16.243 16.24c2.014.332 3.975-.932 4.437-2.92.75-3.224-.092-6.813-2.62-9.341C14.061-.02 7.475.129 3.634 4.37.237 8.12.229 13.916 3.619 17.673c3.453 3.828 9.126 4.364 13.162 1.493"/></g></svg>